<?xml version="1.0" standalone="no"?>
<!DOCTYPE svg PUBLIC "-//W3C//DTD SVG 20010904//EN"
 "http://www.w3.org/TR/2001/REC-SVG-20010904/DTD/svg10.dtd">
<svg version="1.0" xmlns="http://www.w3.org/2000/svg"
 width="268.000000pt" height="188.000000pt" viewBox="0 0 268.000000 188.000000"
 preserveAspectRatio="xMidYMid meet">

<g transform="translate(0.000000,188.000000) scale(0.100000,-0.100000)"
fill="#000000" stroke="none">
<path d="M1300 1873 c-41 -7 -1283 -636 -1295 -655 -7 -14 -5 -22 10 -37 11
-11 269 -166 574 -345 305 -179 557 -328 560 -331 7 -8 -14 1 -399 174 -173
77 -318 141 -322 141 -5 0 -8 -57 -8 -127 0 -110 3 -133 20 -161 24 -39 32
-44 489 -312 334 -196 368 -214 411 -214 43 0 77 18 411 214 457 268 465 273
489 312 17 28 20 51 20 161 0 70 -3 127 -7 127 -6 0 -190 -81 -598 -262 -60
-27 -105 -45 -100 -40 6 5 253 152 550 327 297 174 549 325 560 336 15 15 17
23 10 37 -16 26 -1261 648 -1310 654 -22 3 -51 3 -65 1z"/>
<path d="M2418 898 l-68 -31 0 -335 0 -336 33 32 c38 37 48 39 64 12 7 -10 22
-24 33 -30 20 -11 20 -9 20 355 0 201 -3 365 -7 364 -5 0 -38 -14 -75 -31z"/>
</g>
</svg>
